STARTFONT 2.1
FONT -FontForge-Untitled1-Regular-R-Normal--8-80-75-75-C-80-FontSpecific-0
SIZE 8 75 75
FONTBOUNDINGBOX 7 7 0 0
COMMENT "Generated by fontforge, http://fontforge.sourceforge.net"
COMMENT "Copyright (c) 2023, N E Davis"
STARTPROPERTIES 27
FOUNDRY "FontForge"
FAMILY_NAME "Untitled1"
WEIGHT_NAME "Regular"
SLANT "R"
SETWIDTH_NAME "Normal"
ADD_STYLE_NAME ""
PIXEL_SIZE 8
POINT_SIZE 80
RESOLUTION_X 75
RESOLUTION_Y 75
SPACING "C"
AVERAGE_WIDTH 80
CHARSET_REGISTRY "FontSpecific"
CHARSET_ENCODING "0"
FONTNAME_REGISTRY ""
CHARSET_COLLECTIONS "FontSpecific"
FONT_NAME "Untitled1"
FACE_NAME "Untitled1"
COPYRIGHT "Copyright (c) 2023, N E Davis"
FONT_VERSION "001.000"
FONT_ASCENT 6
FONT_DESCENT 2
UNDERLINE_POSITION -1
UNDERLINE_THICKNESS 1
RAW_ASCENT 800
RAW_DESCENT 200
FIGURE_WIDTH -1
ENDPROPERTIES
CHARS 12
STARTCHAR u10400
ENCODING -1
SWIDTH 1000 0
DWIDTH 8 0
BBX 6 7 0 0
BITMAP
78
CC
0C
7C
CC
CC
78
ENDCHAR
STARTCHAR u10401
ENCODING -1
SWIDTH 1000 0
DWIDTH 8 0
BBX 6 7 0 0
BITMAP
78
CC
C0
70
C0
CC
78
ENDCHAR
STARTCHAR u10403
ENCODING -1
SWIDTH 1000 0
DWIDTH 8 0
BBX 7 7 0 0
BITMAP
38
6C
FE
C6
C6
6C
38
ENDCHAR
STARTCHAR u10407
ENCODING -1
SWIDTH 1000 0
DWIDTH 8 0
BBX 7 7 0 0
BITMAP
1E
0C
0C
0C
0C
7C
CC
ENDCHAR
STARTCHAR u1040C
ENCODING -1
SWIDTH 1000 0
DWIDTH 8 0
BBX 7 7 0 0
BITMAP
3C
18
18
7C
DA
DA
70
ENDCHAR
STARTCHAR u1040D
ENCODING -1
SWIDTH 1000 0
DWIDTH 8 0
BBX 7 7 0 0
BITMAP
7C
D6
D6
7E
C6
C6
7C
ENDCHAR
STARTCHAR u1040E
ENCODING -1
SWIDTH 1000 0
DWIDTH 8 0
BBX 7 7 0 0
BITMAP
44
C6
C6
D6
D6
D6
7C
ENDCHAR
STARTCHAR u10410
ENCODING -1
SWIDTH 1000 0
DWIDTH 8 0
BBX 7 7 0 0
BITMAP
4C
DA
DA
7C
18
18
3C
ENDCHAR
STARTCHAR u10412
ENCODING -1
SWIDTH 1000 0
DWIDTH 8 0
BBX 7 7 0 0
BITMAP
7E
CC
CC
6C
CC
CC
7E
ENDCHAR
STARTCHAR u10417
ENCODING -1
SWIDTH 1000 0
DWIDTH 8 0
BBX 7 7 0 0
BITMAP
38
6C
C6
D6
D6
D6
7C
ENDCHAR
STARTCHAR u1041B
ENCODING -1
SWIDTH 1000 0
DWIDTH 8 0
BBX 6 7 0 0
BITMAP
F0
60
60
60
60
64
FC
ENDCHAR
STARTCHAR u1041C
ENCODING -1
SWIDTH 1000 0
DWIDTH 8 0
BBX 7 7 0 0
BITMAP
C6
C6
6C
38
10
28
38
ENDCHAR
ENDFONT
